<?xml version="1.0" standalone="no"?>
<!DOCTYPE svg PUBLIC "-//W3C//DTD SVG 20010904//EN"
 "http://www.w3.org/TR/2001/REC-SVG-20010904/DTD/svg10.dtd">
<svg version="1.0" xmlns="http://www.w3.org/2000/svg"
 width="550.000000pt" height="550.000000pt" viewBox="0 0 550.000000 550.000000"
 preserveAspectRatio="xMidYMid meet">
<metadata>
Created by potrace 1.14, written by Peter Selinger 2001-2017
</metadata>
<g transform="translate(0.000000,550.000000) scale(0.100000,-0.100000)"
fill="#000000" stroke="none">
<path d="M2559 5346 c-2 -2 -35 -6 -74 -10 -38 -3 -79 -7 -90 -10 -11 -2 -54
-9 -95 -16 -590 -97 -1174 -437 -1556 -905 -65 -80 -164 -212 -164 -220 0 -2
-21 -36 -46 -76 -157 -243 -308 -646 -349 -934 -3 -23 -7 -52 -10 -65 -20
-103 -27 -475 -12 -620 49 -465 214 -897 485 -1270 194 -266 425 -483 705
-664 87 -56 276 -156 352 -187 22 -9 65 -27 95 -39 128 -53 373 -121 525 -145
22 -4 67 -11 100 -16 82 -14 484 -20 570 -9 39 5 87 12 108 14 323 44 666 161
951 325 437 253 811 653 1028 1101 42 88 56 120 107 248 57 145 113 374 141
582 14 105 17 183 14 350 -2 118 -5 229 -8 245 -2 17 -7 54 -11 84 -7 52 -9
68 -20 121 -2 14 -7 36 -9 50 -2 14 -18 78 -35 142 -80 308 -233 624 -430 888
-30 41 -59 77 -62 80 -4 3 -21 23 -39 45 -71 91 -282 291 -416 395 -281 218
-742 420 -1084 475 -25 4 -52 9 -60 10 -14 2 -43 7 -130 21 -39 7 -475 15
-481 10z"/>
</g>
</svg>
